<?xml version="1.0" standalone="no"?>
<!DOCTYPE svg PUBLIC "-//W3C//DTD SVG 20010904//EN"
 "http://www.w3.org/TR/2001/REC-SVG-20010904/DTD/svg10.dtd">
<svg version="1.0" xmlns="http://www.w3.org/2000/svg"
 width="260.000000pt" height="260.000000pt" viewBox="0 0 260.000000 260.000000"
 preserveAspectRatio="xMidYMid meet">
<metadata>
Created by potrace 1.14, written by Peter Selinger 2001-2017
</metadata>
<g transform="translate(0.000000,260.000000) scale(0.100000,-0.100000)"
fill="#000000" stroke="none">
<path d="M1133 2285 c-392 -71 -697 -360 -796 -755 -30 -121 -30 -339 0 -460
145 -577 729 -904 1278 -717 322 110 562 376 648 717 30 121 30 339 0 460 -75
297 -268 539 -538 672 -170 85 -404 117 -592 83z m217 -320 c12 -20 19 -42 16
-50 -3 -10 9 -21 40 -35 159 -70 203 -189 155 -415 -43 -200 -45 -215 -27
-284 9 -34 16 -67 16 -72 0 -11 -507 -12 -514 -1 -8 14 12 138 30 182 14 34
35 55 129 120 118 83 145 112 145 155 0 25 0 25 -32 9 -24 -13 -46 -15 -98
-10 -60 6 -68 5 -87 -16 -11 -13 -26 -33 -32 -46 -10 -18 -17 -21 -39 -15 -15
4 -39 7 -53 6 -19 -2 -29 5 -38 23 -24 53 -16 69 84 156 89 77 95 85 93 117
-3 30 2 38 32 59 19 13 54 29 78 35 l42 11 0 63 c0 60 1 63 19 53 11 -5 29
-26 41 -45z m-460 -169 c0 -7 -20 -21 -45 -31 -66 -25 -80 -56 -77 -179 4
-136 -10 -194 -57 -248 l-38 -43 22 -17 c13 -10 33 -39 46 -65 21 -43 23 -63
24 -180 1 -148 10 -173 73 -203 45 -21 43 -44 -4 -35 -100 18 -120 51 -134
215 -6 69 -15 142 -21 162 -11 43 -51 94 -79 103 -27 9 -25 33 4 46 58 27 81
89 95 265 13 158 37 197 138 214 26 4 49 8 51 9 1 0 2 -5 2 -13z m945 -15 c49
-28 63 -64 75 -201 13 -153 28 -199 83 -245 41 -34 41 -36 22 -50 -80 -59 -90
-84 -105 -265 -13 -141 -26 -176 -80 -201 -53 -26 -110 -33 -110 -15 0 8 16
20 35 26 19 6 44 25 56 42 20 27 22 44 23 162 2 144 17 197 69 245 l26 24 -24
18 c-13 11 -34 40 -46 67 -20 40 -23 64 -24 162 -2 156 -2 154 -31 189 -18 21
-38 33 -65 37 -25 4 -39 12 -39 21 0 12 10 14 53 8 28 -4 65 -15 82 -24z
m-255 -731 c-9 -6 -124 -10 -275 -10 -151 0 -266 4 -275 10 -10 6 84 10 275
10 191 0 285 -4 275 -10z m35 -80 c7 -19 15 -45 19 -57 l7 -23 -330 0 c-182 0
-331 2 -331 4 0 3 20 62 35 104 3 10 68 12 296 10 l292 -3 12 -35z m-191 -109
c3 -5 -3 -20 -14 -33 -10 -14 -22 -37 -26 -52 -6 -24 0 -34 45 -76 28 -26 51
-51 51 -54 0 -3 -79 -6 -175 -6 -96 0 -175 3 -175 8 0 4 17 18 37 32 51 35 74
76 62 109 -6 14 -17 34 -26 43 -8 9 -12 22 -8 27 8 13 221 15 229 2z"/>
</g>
</svg>
